PathFileType	4	(X/Y/Z)	OpenSim_Sub01_EMGStiffKnee_Magnet.trc
DataRate	CameraRate	NumFrames	NumMarkers	Units	OrigDataRate	OrigDataStartFrame	OrigNumFrames
100	100	40	8	m	100	696	5567
Frame#	Time	torso_imu_offset_imu	pelvis_imu_offset_imu	tibia_r_imu_offset_imu	femur_r_imu_offset_imu	tibia_l_imu_offset_imu	femur_l_imu_offset_imu	toes_r_imu_offset_imu	toes_l_imu_offset_imu
				X1	Y1	Z1	X2	Y2	Z2	X3	Y3	Z3	X4	Y4	Z4	X5	Y5	Z5	X6	Y6	Z6	X7	Y7	Z7	X8		Y8	Z8	

696	6.95000000	-0.91655439	-0.15295355	0.13645739	-0.67136091	0.15385921	-0.63249150	-0.58282398	-0.56209917	-0.06442120	-0.81395770	-0.22624893	0.02139520	-0.51334622	0.59999150	0.25564050	-0.40601195	0.07989548	0.38668150	-0.71104416	-0.10150543	-0.33160876	-0.71836845	-0.17731752	-0.35098346
697	6.96000000	-0.91753283	-0.15241004	0.14018377	-0.67094650	0.15380609	-0.63698344	-0.60573372	-0.53236381	-0.06963009	-0.81093903	-0.22526220	0.02359252	-0.50994363	0.60214523	0.25711720	-0.40318236	0.08145385	0.39178874	-0.70184338	-0.08354671	-0.36212654	-0.71930542	-0.17701373	-0.35399477
698	6.97000000	-0.91671874	-0.15172887	0.14254990	-0.67179741	0.15288925	-0.64067177	-0.62665556	-0.50139803	-0.07343046	-0.80850510	-0.22530188	0.02349136	-0.50343013	0.60556864	0.25614791	-0.39869030	0.08100132	0.39366790	-0.69179123	-0.06797261	-0.39062580	-0.72046325	-0.17437584	-0.35409286
699	6.98000000	-0.91455231	-0.15155795	0.14339225	-0.67352465	0.15118082	-0.64211661	-0.64630820	-0.47089292	-0.07401044	-0.80741670	-0.22680054	0.02132635	-0.49421021	0.61083294	0.25346499	-0.39308654	0.07955864	0.39339279	-0.67998810	-0.05488919	-0.41739814	-0.72214010	-0.17031663	-0.35170952
700	6.99000000	-0.91301829	-0.15221080	0.14356766	-0.67548017	0.14922263	-0.64055730	-0.66460805	-0.44234314	-0.07166529	-0.80770836	-0.22957760	0.01941917	-0.48499764	0.61739775	0.25163883	-0.38798719	0.07975966	0.39575718	-0.66596521	-0.04213353	-0.44323868	-0.72466490	-0.16729488	-0.34976327
701	7	-0.91339753	-0.15359568	0.14389123	-0.67701428	0.14741573	-0.63620582	-0.68130631	-0.41671179	-0.06750881	-0.80882128	-0.23337028	0.01947445	-0.47781682	0.62462798	0.25214078	-0.38437629	0.08322728	0.40342552	-0.64995738	-0.02853820	-0.46819252	-0.72815365	-0.16645787	-0.34999347
702	7.01000000	-0.91476133	-0.15444236	0.14497601	-0.67749217	0.14570685	-0.63211236	-0.69572472	-0.39339746	-0.06492610	-0.80848898	-0.23771845	0.02120373	-0.47246719	0.63169218	0.25303614	-0.38127828	0.08845713	0.41245084	-0.63425718	-0.01606707	-0.49003784	-0.73208743	-0.16493788	-0.35044570
703	7.02000000	-0.91581881	-0.15337110	0.14731963	-0.67638874	0.14394324	-0.63158948	-0.70715458	-0.37158921	-0.06739595	-0.80439102	-0.24213753	0.02397937	-0.46828302	0.63781154	0.25191514	-0.37744581	0.09346631	0.41795588	-0.62141386	-0.00708778	-0.50631332	-0.73584139	-0.15943491	-0.34865420
704	7.03000000	-0.91597200	-0.15062379	0.15025239	-0.67477948	0.14174011	-0.63402416	-0.71562023	-0.35166825	-0.07351550	-0.79812288	-0.24632374	0.02761243	-0.46379340	0.64353800	0.24868270	-0.37298593	0.09776295	0.41943331	-0.61212438	-0.00134610	-0.51724604	-0.73896293	-0.15128826	-0.34472038
705	7.04000000	-0.91515668	-0.14769025	0.15220633	-0.67497113	0.13853439	-0.63578259	-0.72171001	-0.33493388	-0.07812531	-0.79429297	-0.25011248	0.03225123	-0.45690856	0.65044730	0.24502491	-0.36904789	0.10200291	0.41973925	-0.60566045	0.00342973	-0.52513132	-0.74113247	-0.14540718	-0.34072117
706	7.05000000	-0.91369496	-0.14546379	0.15212392	-0.67814040	0.13416816	-0.63468522	-0.72565198	-0.32306047	-0.07768635	-0.79548346	-0.25346487	0.03744355	-0.44686802	0.65930755	0.24182271	-0.36632102	0.10676081	0.42103173	-0.60205162	0.00857126	-0.53069717	-0.74262849	-0.14487908	-0.33780190
707	7.06000000	-0.91301623	-0.14297000	0.15053293	-0.68201217	0.12970119	-0.63310459	-0.72656048	-0.31876684	-0.07376156	-0.79802548	-0.25670487	0.04092692	-0.43690853	0.66840873	0.23742836	-0.36404835	0.11228225	0.42313741	-0.60368833	0.01246206	-0.52985625	-0.74549637	-0.14710508	-0.33418876
708	7.07000000	-0.91461074	-0.13898408	0.14825152	-0.68381635	0.12630536	-0.63403945	-0.72345795	-0.32464968	-0.06883156	-0.79741947	-0.26012855	0.04040398	-0.43066982	0.67573637	0.22990997	-0.36129356	0.11869066	0.42542102	-0.61311537	0.01307053	-0.51806771	-0.75192213	-0.14861499	-0.32769204
709	7.08000000	-0.91781697	-0.13370223	0.14605756	-0.68292575	0.12346224	-0.63726533	-0.71707256	-0.33858871	-0.06499413	-0.79402979	-0.26261090	0.03806307	-0.42676344	0.68157565	0.22007936	-0.35843786	0.12519196	0.42678492	-0.62865568	0.01030864	-0.49732618	-0.76130740	-0.14863129	-0.31797431
710	7.09000000	-0.92031765	-0.12841433	0.14469751	-0.68036280	0.11935293	-0.64007736	-0.70944530	-0.35483356	-0.06405106	-0.79196364	-0.26193410	0.03954377	-0.41993193	0.68798146	0.21085960	-0.35687616	0.13028633	0.42577607	-0.64538328	0.00558389	-0.47465587	-0.77091101	-0.14844889	-0.30612367
711	7.10000000	-0.92069563	-0.12416428	0.14449113	-0.67719811	0.11314381	-0.64081461	-0.70229796	-0.36892269	-0.06616902	-0.79364567	-0.25737988	0.04810914	-0.40704502	0.69628865	0.20399885	-0.35738892	0.13320259	0.42158455	-0.65967935	-0.00048922	-0.45531285	-0.77876327	-0.14885619	-0.29271889
712	7.11000000	-0.92033501	-0.12118156	0.14449254	-0.67451921	0.10702830	-0.64110762	-0.69630359	-0.38050161	-0.06667868	-0.79621477	-0.25276919	0.05969693	-0.39158890	0.70555719	0.19759287	-0.35885321	0.13538873	0.41533861	-0.67205753	-0.00976671	-0.43891479	-0.78535059	-0.14897808	-0.27671635
713	7.12000000	-0.92102892	-0.11948678	0.14358927	-0.67333742	0.10359387	-0.64303392	-0.69184788	-0.39005870	-0.06039647	-0.79606498	-0.25245994	0.06907194	-0.37801987	0.71451133	0.18924037	-0.35989379	0.13859869	0.40848879	-0.68368180	-0.02425788	-0.42409657	-0.79161235	-0.14771185	-0.25681519
714	7.13000000	-0.92294151	-0.11822845	0.14167702	-0.67347591	0.10294983	-0.64625324	-0.68791809	-0.39933244	-0.04782327	-0.79306752	-0.25628647	0.07371349	-0.36700594	0.72314538	0.17920684	-0.36062523	0.14302542	0.40194580	-0.69401460	-0.04143057	-0.41038580	-0.79847154	-0.14515125	-0.23235378
715	7.14000000	-0.92498319	-0.11588433	0.13942749	-0.67384355	0.10329804	-0.64856483	-0.68242569	-0.41102255	-0.03383498	-0.78976984	-0.26060189	0.07319171	-0.35629947	0.73243086	0.16980995	-0.36230859	0.14766036	0.39620444	-0.70120932	-0.05525834	-0.39799733	-0.80683784	-0.14231060	-0.20316309
716	7.15000000	-0.92633380	-0.11168818	0.13738092	-0.67371611	0.10312667	-0.64869629	-0.67416260	-0.42649163	-0.02232649	-0.78807044	-0.26300956	0.06866285	-0.34433808	0.74270796	0.16250898	-0.36565121	0.15166367	0.39127827	-0.70443675	-0.06187730	-0.38724238	-0.81677957	-0.13971443	-0.16978544
717	7.16000000	-0.92706961	-0.10717134	0.13562762	-0.67352951	0.10192043	-0.64827585	-0.66461922	-0.44305564	-0.01394323	-0.78773504	-0.26509396	0.06583640	-0.33181850	0.75236637	0.15605570	-0.36962753	0.15478864	0.38578270	-0.70599077	-0.06411664	-0.37866588	-0.82586594	-0.13636152	-0.13483920
718	7.17000000	-0.92742611	-0.10416882	0.13414847	-0.67392135	0.09936293	-0.64931129	-0.65571899	-0.45740377	-0.00864682	-0.78808648	-0.26906798	0.07074605	-0.31973144	0.75957849	0.14884971	-0.37296927	0.15690295	0.37820112	-0.70853660	-0.06587210	-0.37280251	-0.83141535	-0.13106428	-0.10112934
719	7.18000000	-0.92754113	-0.10270255	0.13253218	-0.67533739	0.09535789	-0.65146464	-0.64839932	-0.46804211	-0.00515599	-0.78772076	-0.27553419	0.08167977	-0.30721689	0.76466189	0.14151159	-0.37557055	0.15794473	0.36890883	-0.71165550	-0.06848275	-0.36938647	-0.83390643	-0.12406795	-0.06850937
720	7.19000000	-0.92747747	-0.10139906	0.13006570	-0.67807520	0.08997867	-0.65259293	-0.64283841	-0.47487602	-0.00123347	-0.78467521	-0.28385558	0.09096527	-0.29199133	0.76958496	0.13637081	-0.37822009	0.15790640	0.35973745	-0.71255571	-0.07131947	-0.36753573	-0.83624955	-0.11672064	-0.03456260
721	7.20000000	-0.92752792	-0.09924966	0.12626427	-0.68173131	0.08364306	-0.65151697	-0.63893174	-0.47865083	0.00440393	-0.77809654	-0.29340302	0.09385816	-0.27335022	0.77564835	0.13478534	-0.38146117	0.15679821	0.35236600	-0.70972344	-0.07369986	-0.36628216	-0.84007486	-0.11030060	0.00073769
722	7.21000000	-0.92867420	-0.09643625	0.12134449	-0.68383050	0.07777947	-0.65005934	-0.63579268	-0.48250089	0.01013128	-0.77047055	-0.30366543	0.09476978	-0.25538949	0.78204248	0.13509570	-0.38503936	0.15467930	0.34790873	-0.70562378	-0.07493356	-0.36444889	-0.84302252	-0.10579403	0.03014322
723	7.22000000	-0.93188774	-0.09333916	0.11567361	-0.68176190	0.07388168	-0.65044089	-0.63241471	-0.48970489	0.01392509	-0.76473025	-0.31414764	0.09939233	-0.24285965	0.78756603	0.13514173	-0.38857225	0.15157543	0.34725131	-0.70329450	-0.07443051	-0.36093656	-0.84224303	-0.10418249	0.04558680
724	7.23000000	-0.93607912	-0.09001499	0.10993284	-0.67661582	0.07162671	-0.65253736	-0.62816063	-0.49909300	0.01584257	-0.76126327	-0.32426534	0.10725455	-0.23702522	0.79099400	0.13361849	-0.39196901	0.14687787	0.34942133	-0.70333571	-0.07312331	-0.35638324	-0.83859785	-0.10718527	0.04687362
725	7.24000000	-0.93857335	-0.08627116	0.10504498	-0.67233065	0.06929339	-0.65441985	-0.62267807	-0.50607246	0.01754225	-0.75849809	-0.33336583	0.11314192	-0.23646747	0.79108388	0.12988019	-0.39536321	0.13949049	0.35201649	-0.70447131	-0.07311594	-0.35276388	-0.83580382	-0.11708811	0.03986759
726	7.25000000	-0.93777546	-0.08206075	0.10178882	-0.67145591	0.06565353	-0.65496353	-0.61633576	-0.50806878	0.02015147	-0.75521538	-0.34112901	0.11355450	-0.24001397	0.78744530	0.12429803	-0.39878737	0.12970313	0.35316440	-0.70578147	-0.07551654	-0.35131584	-0.83588503	-0.13420669	0.02867134
727	7.26000000	-0.93542097	-0.07778868	0.10049684	-0.67219650	0.06105071	-0.65557064	-0.61162320	-0.50876623	0.02309672	-0.75139220	-0.34822824	0.11044950	-0.24742942	0.78222143	0.12021477	-0.40195663	0.12196119	0.35267660	-0.70754836	-0.07838471	-0.35098271	-0.83561733	-0.15295965	0.01169081
728	7.27000000	-0.93376859	-0.07391664	0.10134391	-0.67209506	0.05609857	-0.65797352	-0.61112505	-0.51270830	0.02548064	-0.74722249	-0.35550463	0.10667746	-0.25863885	0.77787195	0.12120577	-0.40454377	0.12103551	0.35073829	-0.71017595	-0.07939453	-0.35037010	-0.83107380	-0.16700360	-0.01346159
729	7.28000000	-0.93369247	-0.07050595	0.10338171	-0.67080381	0.05110395	-0.66185297	-0.61298193	-0.51998085	0.02626556	-0.74283618	-0.36356115	0.10335884	-0.27337436	0.77458340	0.12610615	-0.40646613	0.12507039	0.34846737	-0.71256473	-0.07888509	-0.34937235	-0.82233021	-0.17490747	-0.04528748
730	7.29000000	-0.93500071	-0.06730992	0.10479788	-0.66959861	0.04613741	-0.66531107	-0.61191544	-0.52723900	0.02430657	-0.73831393	-0.37281706	0.10028224	-0.29121922	0.77079269	0.13010316	-0.40782944	0.12711125	0.34769903	-0.71245884	-0.07924633	-0.34887548	-0.81254296	-0.17902099	-0.07929784
731	7.30000000	-0.93721699	-0.06426834	0.10459166	-0.66932890	0.04119696	-0.66716559	-0.60510061	-0.53213842	0.01950778	-0.73374855	-0.38318359	0.09721163	-0.31142271	0.76520102	0.12980854	-0.40892607	0.12302512	0.34934963	-0.70891165	-0.08197533	-0.34923442	-0.80403813	-0.18093328	-0.11194913
732	7.31000000	-0.93910147	-0.06189879	0.10423997	-0.66945303	0.03608303	-0.66848167	-0.59726413	-0.53556990	0.01489858	-0.72927281	-0.39307637	0.09393954	-0.33225297	0.75742859	0.12634573	-0.41058863	0.11745299	0.35155050	-0.70495521	-0.08575938	-0.34915022	-0.79643919	-0.17968434	-0.14273583
733	7.32000000	-0.93937432	-0.06075283	0.10554743	-0.66920096	0.03057607	-0.67063775	-0.59413641	-0.53894550	0.01384610	-0.72503590	-0.40075883	0.09029889	-0.35190653	0.74732747	0.12156410	-0.41368919	0.11620767	0.35206769	-0.70410890	-0.08887314	-0.34716617	-0.78890442	-0.17401910	-0.17168278
734	7.33000000	-0.93827025	-0.06029221	0.10836811	-0.66823430	0.02470391	-0.67348319	-0.59557524	-0.54252663	0.01612512	-0.72132262	-0.40635406	0.08664810	-0.37022265	0.73567642	0.11569436	-0.41819560	0.11836370	0.35090645	-0.70617730	-0.09119012	-0.34404028	-0.78110796	-0.16531976	-0.19834640
735	7.34000000	-0.93718929	-0.05914012	0.11105507	-0.66654692	0.01868470	-0.67569073	-0.59691880	-0.54568919	0.01874576	-0.71852197	-0.41141630	0.08374996	-0.38830466	0.72396718	0.10772196	-0.42337985	0.11781013	0.34979524	-0.70810611	-0.09381437	-0.34223450	-0.77312110	-0.15699823	-0.22192286
